# xmcd CD database file
#
# Track frame offsets:
#	150
#	8967
#	20841
#	32619
#	37293
#	41337
#	54739
#	58989
#	77197
#	82576
#	89282
#	95435
#	99655
#	104705
#	108388
#	114732
#	120274
#	128928
#	135806
#	143821
#	150521
#	155050
#	160363
#	171302
#	177462
#	194324
#	200728
#	208771
#	219298
#	227268
#	241423
#	247404
#	257574
#	263718
#	267545
#	281903
#	286385
#	293061
#	302504
#	305200
#	309651
#
# Disc length: 4249 seconds
#
# Revision: 1
# Processed by: cddbd v1.5.2PL0 Copyright (c) Steve Scherf et al.
# Submitted via: CDex 1.70beta2
#
DISCID=63109729
DTITLE=Francuscy muzykanci - Unknown CD for MusicBrainz and FreeDB
DYEAR=1900
DGENRE=
TTITLE0=bourree
TTITLE1=chant
TTITLE2=chant
TTITLE3=reveillez
TTITLE4=sautiere
TTITLE5=chant
TTITLE6=bourree
TTITLE7=chant
TTITLE8=bourree
TTITLE9=valse
TTITLE10=chant
TTITLE11=bourree
TTITLE12=bourree
TTITLE13=bourree
TTITLE14=chant
TTITLE15=mazurka
TTITLE16=chant
TTITLE17=chant
TTITLE18=chant
TTITLE19=bourree-valse
TTITLE20=chant
TTITLE21=melodie,chabrette
TTITLE22=chant
TTITLE23=valse
TTITLE24=chant
TTITLE25=bourree
TTITLE26=chant
TTITLE27=chant
TTITLE28=mazurka
TTITLE29=chant
TTITLE30=scottisch
TTITLE31=chant
TTITLE32=bourrees
TTITLE33=bourree
TTITLE34=chant
TTITLE35=vielle a roue
TTITLE36=valse
TTITLE37=valse
TTITLE38=polka piquee
TTITLE39=mazurka
TTITLE40=scottisch
EXTD=
EXTT0=
EXTT1=
EXTT2=
EXTT3=
EXTT4=
EXTT5=
EXTT6=
EXTT7=
EXTT8=
EXTT9=
EXTT10=
EXTT11=
EXTT12=
EXTT13=
EXTT14=
EXTT15=
EXTT16=
EXTT17=
EXTT18=
EXTT19=
EXTT20=
EXTT21=
EXTT22=
EXTT23=
EXTT24=
EXTT25=
EXTT26=
EXTT27=
EXTT28=
EXTT29=
EXTT30=
EXTT31=
EXTT32=
EXTT33=
EXTT34=
EXTT35=
EXTT36=
EXTT37=
EXTT38=
EXTT39=
EXTT40=
PLAYORDER=
